<?xml version="1.0" encoding="UTF-8"?>
<svg width="48px" height="33px" viewBox="0 0 48 33" version="1.1" xmlns="http://www.w3.org/2000/svg" xmlns:xlink="http://www.w3.org/1999/xlink">
    <!-- Generator: Sketch 64 (93537) - https://sketch.com -->
    <title>table-icon_3</title>
    <desc>Created with Sketch.</desc>
    <g id="Page-1" stroke="none" stroke-width="1" fill="none" fill-rule="evenodd">
        <g id="table-icon_3" fill="#000000" fill-rule="nonzero">
            <path d="M0,0 L0,33 L48,33 L48,0 L0,0 Z M18,21 L18,15 L30,15 L30,21 L18,21 Z M30,24 L30,30 L18,30 L18,24 L30,24 Z M30,6 L30,12 L18,12 L18,6 L30,6 Z M15,6 L15,12 L3,12 L3,6 L15,6 Z M3,15 L15,15 L15,21 L3,21 L3,15 Z M33,15 L45,15 L45,21 L33,21 L33,15 Z M33,12 L33,6 L45,6 L45,12 L33,12 Z M3,24 L15,24 L15,30 L3,30 L3,24 Z M33,30 L33,24 L45,24 L45,30 L33,30 Z" id="XMLID_13_"></path>
        </g>
    </g>
</svg>